# xmcd
#
# Track frame offsets:
# 150
# 19259
# 35677
# 53347
#
# Disc length: 916 seconds
#
#
# Revision: 0
# Processed by: cddbd v1.5.2PL0 Copyright (c) Steve Scherf et al.
# Submitted via: FreeRIP 2.951 
#
DISCID=28039204
DTITLE=PANOS PSALTHS - AGELE MOY
DYEAR=2007
DGENRE=GREEK
TTITLE0=agele moy
TTITLE1=mh mou les s'agapw
TTITLE2=monos
TTITLE3=duo matia duo matakia
EXTD=
EXTT0=
EXTT1=
EXTT2=
EXTT3=
PLAYORDER=
